<!DOCTYPE svg PUBLIC "-//W3C//DTD SVG 1.1//EN" "http://www.w3.org/Graphics/SVG/1.1/DTD/svg11.dtd">
<!-- Uploaded to: SVG Repo, www.svgrepo.com, Transformed by: SVG Repo Mixer Tools -->
<svg fill="#000000" height="100px" width="100px" version="1.1" id="Layer_1" xmlns="http://www.w3.org/2000/svg" xmlns:xlink="http://www.w3.org/1999/xlink" viewBox="0 0 512 512" xml:space="preserve">
<g id="SVGRepo_bgCarrier" stroke-width="0"/>
<g id="SVGRepo_tracerCarrier" stroke-linecap="round" stroke-linejoin="round"/>
<g id="SVGRepo_iconCarrier"> <g> <g> <path d="M126.722,481.641H83.207c-8.384,0-15.179,6.796-15.179,15.179c0,8.384,6.796,15.179,15.179,15.179h43.515 c8.384,0,15.179-6.796,15.179-15.179C141.901,488.437,135.105,481.641,126.722,481.641z"/> </g> </g> <g> <g> <path d="M428.791,481.641h-43.515c-8.384,0-15.179,6.796-15.179,15.179c0,8.384,6.796,15.179,15.179,15.179h43.515 c8.384,0,15.179-6.796,15.179-15.179C443.971,488.437,437.175,481.641,428.791,481.641z"/> </g> </g> <g> <g> <path d="M511.451,177.289c-2.719-35.195-31.394-62.917-66.692-64.485c-0.961-0.044-1.92-0.065-2.884-0.071 c-0.094,0-0.187,0-0.281,0c-3.693,0-7.339,0.326-10.917,0.929c1.79-29.006-8.361-57.745-28.088-79.154 C382.379,12.578,353.685,0,323.864,0H188.135c-29.821,0-58.515,12.578-78.723,34.507c-19.729,21.409-29.878,50.15-28.088,79.156 c-3.676-0.621-7.421-0.949-11.21-0.932c-0.953,0.005-1.911,0.027-2.864,0.07c-35.307,1.57-63.981,29.292-66.7,64.487 c-2.36,30.532,15.541,58.782,42.939,70.239v143.266v61.124c0,8.384,6.796,15.179,15.179,15.179h394.663 c8.384,0,15.179-6.796,15.179-15.179v-61.124V247.527C495.91,236.07,513.811,207.819,511.451,177.289z M131.737,55.08 c14.691-15.941,34.72-24.721,56.397-24.721h135.729c21.679,0,41.708,8.78,56.397,24.721c14.691,15.941,21.807,36.62,20.038,58.225 l-1.242,15.185c-0.137,0.115-0.263,0.24-0.398,0.357c-0.595,0.518-1.184,1.044-1.762,1.585c-0.364,0.339-0.726,0.68-1.082,1.026 c-0.172,0.167-0.351,0.323-0.521,0.493c-0.237,0.235-0.457,0.481-0.689,0.719c-0.455,0.466-0.909,0.932-1.351,1.41 c-0.328,0.354-0.644,0.715-0.962,1.075c-0.451,0.509-0.902,1.017-1.336,1.539c-0.346,0.414-0.677,0.841-1.012,1.263 c-0.369,0.466-0.745,0.926-1.102,1.401c-0.524,0.695-1.025,1.407-1.521,2.121c-0.146,0.209-0.301,0.413-0.443,0.625 c-4.071,6.005-7.11,12.596-9.057,19.549c-0.014,0.049-0.027,0.097-0.041,0.146c-0.299,1.078-0.572,2.163-0.818,3.258 c-0.029,0.126-0.058,0.25-0.085,0.376c-0.222,1.011-0.417,2.028-0.594,3.053c-0.033,0.197-0.071,0.393-0.103,0.591 c-0.153,0.95-0.284,1.906-0.398,2.867c-0.032,0.26-0.068,0.518-0.097,0.779c-0.099,0.924-0.172,1.855-0.234,2.788 c-0.018,0.281-0.049,0.56-0.064,0.841c-0.064,1.196-0.103,2.395-0.105,3.602l-0.132,72.445 c-11.992-8.708-26.725-13.863-42.646-13.863H179.495c-15.922,0-30.653,5.155-42.646,13.863l-0.132-72.445 c-0.002-1.207-0.041-2.406-0.105-3.602c-0.015-0.282-0.044-0.56-0.064-0.841c-0.062-0.934-0.135-1.862-0.234-2.788 c-0.029-0.261-0.065-0.519-0.097-0.779c-0.114-0.961-0.244-1.916-0.398-2.867c-0.032-0.197-0.07-0.395-0.103-0.591 c-0.175-1.025-0.372-2.042-0.594-3.053c-0.027-0.126-0.056-0.252-0.085-0.376c-0.246-1.094-0.519-2.181-0.818-3.258 c-0.014-0.049-0.027-0.097-0.041-0.146c-1.948-6.954-4.988-13.545-9.057-19.549c-0.143-0.211-0.298-0.414-0.443-0.625 c-0.495-0.713-0.996-1.424-1.521-2.121c-0.357-0.475-0.732-0.937-1.102-1.401c-0.336-0.422-0.666-0.849-1.013-1.263 c-0.434-0.522-0.885-1.029-1.336-1.539c-0.319-0.36-0.635-0.721-0.962-1.075c-0.442-0.477-0.894-0.944-1.351-1.41 c-0.232-0.238-0.454-0.484-0.689-0.719c-0.168-0.167-0.346-0.323-0.516-0.489c-0.364-0.354-0.733-0.701-1.107-1.047 c-0.563-0.524-1.135-1.037-1.712-1.539c-0.144-0.124-0.281-0.26-0.428-0.386l-1.242-15.185 C109.93,91.7,117.047,71.021,131.737,55.08z M260.616,312.892H137.099v-1.6c0-23.376,19.018-42.396,42.396-42.396h153.013 c23.376,0,42.396,19.018,42.396,42.396v63.204h-0.002H137.099v-31.245h123.518c8.384,0,15.179-6.796,15.179-15.179 S269,312.892,260.616,312.892z M61.904,221.634c-19.247-4.205-32.613-22.262-31.087-42.007 c1.513-19.59,18.109-35.621,37.788-36.496c0.556-0.024,1.108-0.038,1.647-0.039c0.05,0,0.1,0,0.15,0 c6.94,0,13.614,2.049,19.357,5.865c0.049,0.033,0.093,0.074,0.143,0.108c1.243,0.835,2.424,1.743,3.544,2.708 c0.065,0.056,0.131,0.111,0.194,0.167c0.492,0.43,0.968,0.874,1.435,1.328c0.065,0.064,0.134,0.124,0.199,0.188 c0.475,0.471,0.935,0.953,1.383,1.447c0.223,0.246,0.436,0.499,0.651,0.75c0.234,0.272,0.469,0.543,0.694,0.823 c0.209,0.258,0.413,0.521,0.616,0.783c0.234,0.305,0.464,0.612,0.689,0.924c0.168,0.234,0.337,0.467,0.499,0.704 c0.291,0.427,0.574,0.858,0.849,1.295c0.082,0.131,0.17,0.26,0.25,0.392c0.757,1.243,1.442,2.53,2.049,3.856 c0.021,0.046,0.039,0.091,0.061,0.137c0.287,0.633,0.557,1.274,0.808,1.922c0.018,0.046,0.036,0.093,0.053,0.138 c0.792,2.069,1.403,4.214,1.82,6.415c0.017,0.088,0.03,0.176,0.046,0.264c0.109,0.601,0.203,1.207,0.284,1.817 c0.024,0.181,0.047,0.36,0.067,0.54c0.064,0.539,0.112,1.081,0.153,1.626c0.014,0.193,0.032,0.384,0.044,0.577 c0.042,0.713,0.068,1.43,0.07,2.149l0.357,195.603H73.848V236.464C73.848,229.328,68.878,223.155,61.904,221.634z M438.152,436.738H73.848v-30.766h364.305V436.738z M450.096,221.631c-6.972,1.521-11.943,7.694-11.943,14.83v139.152h-32.866 l0.357-195.603c0.002-0.719,0.027-1.436,0.07-2.149c0.011-0.193,0.029-0.386,0.044-0.577c0.039-0.545,0.09-1.087,0.153-1.626 c0.021-0.181,0.044-0.361,0.067-0.54c0.081-0.609,0.175-1.214,0.284-1.817c0.015-0.088,0.029-0.176,0.046-0.264 c0.417-2.199,1.028-4.346,1.82-6.415c0.018-0.046,0.035-0.093,0.053-0.138c0.252-0.648,0.521-1.29,0.808-1.922 c0.021-0.046,0.039-0.091,0.061-0.137c0.607-1.325,1.292-2.611,2.049-3.856c0.08-0.132,0.167-0.261,0.25-0.392 c0.273-0.437,0.556-0.87,0.849-1.295c0.162-0.237,0.331-0.471,0.499-0.704c0.225-0.311,0.454-0.619,0.689-0.924 c0.202-0.263,0.405-0.525,0.616-0.783c0.226-0.278,0.46-0.549,0.694-0.823c0.216-0.25,0.428-0.504,0.651-0.75 c0.448-0.493,0.906-0.978,1.383-1.447c0.065-0.064,0.134-0.124,0.199-0.188c0.468-0.454,0.946-0.899,1.437-1.33 c0.062-0.055,0.126-0.108,0.188-0.162c1.12-0.967,2.303-1.875,3.547-2.711c0.052-0.033,0.096-0.076,0.146-0.111 c5.741-3.815,12.411-5.862,19.343-5.862c0.049,0,0.099,0,0.149,0c0.549,0.001,1.104,0.015,1.667,0.041 c19.671,0.874,36.267,16.905,37.78,36.496C482.708,199.372,469.343,217.429,450.096,221.631z"/> </g> </g> <g> <g> <path d="M316.884,317.34c-0.698-0.698-1.472-1.336-2.307-1.882c-0.82-0.546-1.7-1.017-2.611-1.396 c-0.926-0.38-1.882-0.668-2.854-0.865c-4.933-1.002-10.17,0.622-13.692,4.144c-2.823,2.823-4.448,6.74-4.448,10.732 s1.624,7.908,4.448,10.732s6.74,4.448,10.732,4.448c0.987,0,1.988-0.091,2.96-0.288s1.928-0.501,2.854-0.88 c0.911-0.38,1.791-0.85,2.611-1.397c0.835-0.546,1.609-1.184,2.307-1.882c2.823-2.823,4.448-6.74,4.448-10.732 C321.332,324.079,319.708,320.163,316.884,317.34z"/> </g> </g> </g>
</svg>